HIERARCHY
ROOT Hips
{
	OFFSET 0.000000 100.481300 0.000000
	CHANNELS 6 Xposition Yposition Zposition Xrotation Yrotation Zrotation
	JOINT Spine
	{
		OFFSET -0.279200 12.230698 -2.892100
		CHANNELS 3 Xrotation Yrotation Zrotation
		JOINT Spine1
		{
			OFFSET -0.325700 14.269203 -3.374200
			CHANNELS 3 Xrotation Yrotation Zrotation
			JOINT Spine2
			{
				OFFSET -0.372300 16.307602 -0.352600
				CHANNELS 3 Xrotation Yrotation Zrotation
				JOINT Neck
				{
					OFFSET -0.418800 17.814194 8.416900
					CHANNELS 3 Xrotation Yrotation Zrotation
					JOINT Head
					{
						OFFSET 0.000000 7.031097 3.806800
						CHANNELS 3 Xrotation Yrotation Zrotation
						JOINT HeadTop_End
						{
							OFFSET 0.000000 24.646606 12.978600
							CHANNELS 3 Xrotation Yrotation Zrotation
							End Site
							{
								OFFSET 0.000000 27.854965 0.000000
							}
						}
					}
				}
				JOINT LeftShoulder
				{
					OFFSET 16.952999 14.495407 -7.737500
					CHANNELS 3 Xrotation Yrotation Zrotation
					JOINT LeftArm
					{
						OFFSET 9.308998 -2.777710 0.208600
						CHANNELS 3 Xrotation Yrotation Zrotation
						JOINT LeftForeArm
						{
							OFFSET 29.972298 0.000000 0.000000
							CHANNELS 3 Xrotation Yrotation Zrotation
							JOINT LeftHand
							{
								OFFSET 26.026505 0.000000 0.000000
								CHANNELS 3 Xrotation Yrotation Zrotation
								JOINT LeftHandThumb1
								{
									OFFSET 12.240501 -7.147949 9.207150
									CHANNELS 3 Xrotation Yrotation Zrotation
									JOINT LeftHandThumb2
									{
										OFFSET 4.138618 -2.389435 2.389433
										CHANNELS 3 Xrotation Yrotation Zrotation
										JOINT LeftHandThumb3
										{
											OFFSET 2.726913 -1.574387 1.574386
											CHANNELS 3 Xrotation Yrotation Zrotation
											JOINT LeftHandThumb4
											{
												OFFSET 3.941010 -2.275345 2.275342
												CHANNELS 3 Xrotation Yrotation Zrotation
												End Site
												{
													OFFSET -0.005798 5.087799 0.009903
												}
											}
										}
									}
								}
								JOINT LeftHandIndex1
								{
									OFFSET 24.424698 -1.985611 5.953459
									CHANNELS 3 Xrotation Yrotation Zrotation
									JOINT LeftHandIndex2
									{
										OFFSET 6.426697 0.000000 0.000000
										CHANNELS 3 Xrotation Yrotation Zrotation
										JOINT LeftHandIndex3
										{
											OFFSET 5.337898 0.000000 0.000000
											CHANNELS 3 Xrotation Yrotation Zrotation
											JOINT LeftHandIndex4
											{
												OFFSET 4.409401 0.000000 0.000000
												CHANNELS 3 Xrotation Yrotation Zrotation
												End Site
												{
													OFFSET 0.000000 4.409363 0.014373
												}
											}
										}
									}
								}
								JOINT LeftHandMiddle1
								{
									OFFSET 23.810104 0.000000 0.000000
									CHANNELS 3 Xrotation Yrotation Zrotation
									JOINT LeftHandMiddle2
									{
										OFFSET 7.176498 0.000000 0.000000
										CHANNELS 3 Xrotation Yrotation Zrotation
										JOINT LeftHandMiddle3
										{
											OFFSET 6.774902 0.000000 0.000000
											CHANNELS 3 Xrotation Yrotation Zrotation
											JOINT LeftHandMiddle4
											{
												OFFSET 5.403328 0.000000 0.000000
												CHANNELS 3 Xrotation Yrotation Zrotation
												End Site
												{
													OFFSET -0.027702 5.403244 0.017414
												}
											}
										}
									}
								}
								JOINT LeftHandRing1
								{
									OFFSET 22.908401 -0.839279 -6.020567
									CHANNELS 3 Xrotation Yrotation Zrotation
									JOINT LeftHandRing2
									{
										OFFSET 6.337502 0.000000 0.000000
										CHANNELS 3 Xrotation Yrotation Zrotation
										JOINT LeftHandRing3
										{
											OFFSET 5.779297 0.000000 0.000000
											CHANNELS 3 Xrotation Yrotation Zrotation
											JOINT LeftHandRing4
											{
												OFFSET 4.965698 0.000000 0.000000
												CHANNELS 3 Xrotation Yrotation Zrotation
												End Site
												{
													OFFSET 0.000000 4.965668 0.016186
												}
											}
										}
									}
								}
								JOINT LeftHandPinky1
								{
									OFFSET 20.037003 -1.530319 -10.950146
									CHANNELS 3 Xrotation Yrotation Zrotation
									JOINT LeftHandPinky2
									{
										OFFSET 5.254700 0.000000 0.000000
										CHANNELS 3 Xrotation Yrotation Zrotation
										JOINT LeftHandPinky3
										{
											OFFSET 4.810204 0.000000 0.000000
											CHANNELS 3 Xrotation Yrotation Zrotation
											JOINT LeftHandPinky4
											{
												OFFSET 3.647202 0.000000 0.000000
												CHANNELS 3 Xrotation Yrotation Zrotation
												End Site
												{
													OFFSET 0.000000 3.647186 0.011889
												}
											}
										}
									}
								}
							}
						}
					}
				}
				JOINT RightShoulder
				{
					OFFSET -15.141001 14.495407 -7.737500
					CHANNELS 3 Xrotation Yrotation Zrotation
					JOINT RightArm
					{
						OFFSET -9.308998 -2.777710 0.208500
						CHANNELS 3 Xrotation Yrotation Zrotation
						JOINT RightForeArm
						{
							OFFSET -29.972300 0.000000 0.000000
							CHANNELS 3 Xrotation Yrotation Zrotation
							JOINT RightHand
							{
								OFFSET -26.026505 0.000000 0.000000
								CHANNELS 3 Xrotation Yrotation Zrotation
								JOINT RightHandThumb1
								{
									OFFSET -12.240601 -7.148026 9.207092
									CHANNELS 3 Xrotation Yrotation Zrotation
									JOINT RightHandThumb2
									{
										OFFSET -4.138618 -2.389435 2.389433
										CHANNELS 3 Xrotation Yrotation Zrotation
										JOINT RightHandThumb3
										{
											OFFSET -2.726974 -1.574417 1.574421
											CHANNELS 3 Xrotation Yrotation Zrotation
											JOINT RightHandThumb4
											{
												OFFSET -3.941010 -2.275345 2.275343
												CHANNELS 3 Xrotation Yrotation Zrotation
												End Site
												{
													OFFSET 0.005814 5.087799 0.009927
												}
											}
										}
									}
								}
								JOINT RightHandIndex1
								{
									OFFSET -24.424698 -1.985657 5.953444
									CHANNELS 3 Xrotation Yrotation Zrotation
									JOINT RightHandIndex2
									{
										OFFSET -6.426697 0.000000 0.000000
										CHANNELS 3 Xrotation Yrotation Zrotation
										JOINT RightHandIndex3
										{
											OFFSET -5.337898 0.000000 0.000000
											CHANNELS 3 Xrotation Yrotation Zrotation
											JOINT RightHandIndex4
											{
												OFFSET -4.409401 0.000000 0.000000
												CHANNELS 3 Xrotation Yrotation Zrotation
												End Site
												{
													OFFSET 0.000000 4.409363 0.014408
												}
											}
										}
									}
								}
								JOINT RightHandMiddle1
								{
									OFFSET -23.810097 0.000000 0.000000
									CHANNELS 3 Xrotation Yrotation Zrotation
									JOINT RightHandMiddle2
									{
										OFFSET -7.176498 0.000000 0.000000
										CHANNELS 3 Xrotation Yrotation Zrotation
										JOINT RightHandMiddle3
										{
											OFFSET -6.774902 0.000000 0.000000
											CHANNELS 3 Xrotation Yrotation Zrotation
											JOINT RightHandMiddle4
											{
												OFFSET -5.403328 0.000000 0.000000
												CHANNELS 3 Xrotation Yrotation Zrotation
												End Site
												{
													OFFSET 0.027702 5.403244 0.017457
												}
											}
										}
									}
								}
								JOINT RightHandRing1
								{
									OFFSET -22.908302 -0.839325 -6.020576
									CHANNELS 3 Xrotation Yrotation Zrotation
									JOINT RightHandRing2
									{
										OFFSET -6.337502 0.000000 0.000000
										CHANNELS 3 Xrotation Yrotation Zrotation
										JOINT RightHandRing3
										{
											OFFSET -5.779297 0.000000 0.000000
											CHANNELS 3 Xrotation Yrotation Zrotation
											JOINT RightHandRing4
											{
												OFFSET -4.965698 0.000000 0.000000
												CHANNELS 3 Xrotation Yrotation Zrotation
												End Site
												{
													OFFSET 0.000000 4.965668 0.016226
												}
											}
										}
									}
								}
								JOINT RightHandPinky1
								{
									OFFSET -20.037003 -1.530334 -10.950259
									CHANNELS 3 Xrotation Yrotation Zrotation
									JOINT RightHandPinky2
									{
										OFFSET -5.254700 0.000000 0.000000
										CHANNELS 3 Xrotation Yrotation Zrotation
										JOINT RightHandPinky3
										{
											OFFSET -4.810204 0.000000 0.000000
											CHANNELS 3 Xrotation Yrotation Zrotation
											JOINT RightHandPinky4
											{
												OFFSET -3.647202 0.000000 0.000000
												CHANNELS 3 Xrotation Yrotation Zrotation
												End Site
												{
													OFFSET 0.000000 3.647186 0.011917
												}
											}
										}
									}
								}
							}
						}
					}
				}
			}
		}
	}
	JOINT LeftUpLeg
	{
		OFFSET 15.427100 -6.655098 0.678600
		CHANNELS 3 Xrotation Yrotation Zrotation
		JOINT LeftLeg
		{
			OFFSET 4.081073 -39.591068 13.024000
			CHANNELS 3 Xrotation Yrotation Zrotation
			JOINT LeftFoot
			{
				OFFSET -4.081074 -37.707932 -15.979700
				CHANNELS 3 Xrotation Yrotation Zrotation
				JOINT LeftToeBase
				{
					OFFSET 5.346399 -15.068900 20.645000
					CHANNELS 3 Xrotation Yrotation Zrotation
					JOINT LeftToe_End
					{
						OFFSET 2.754700 0.931300 11.300900
						CHANNELS 3 Xrotation Yrotation Zrotation
						End Site
						{
							OFFSET 0.000000 11.669021 0.000000
						}
					}
				}
			}
		}
	}
	JOINT RightUpLeg
	{
		OFFSET -15.569500 -6.655098 0.678600
		CHANNELS 3 Xrotation Yrotation Zrotation
		JOINT RightLeg
		{
			OFFSET -4.081825 -39.591045 13.023800
			CHANNELS 3 Xrotation Yrotation Zrotation
			JOINT RightFoot
			{
				OFFSET 4.081824 -37.707954 -15.979600
				CHANNELS 3 Xrotation Yrotation Zrotation
				JOINT RightToeBase
				{
					OFFSET -5.346400 -15.068900 20.645000
					CHANNELS 3 Xrotation Yrotation Zrotation
					JOINT RightToe_End
					{
						OFFSET -2.754700 0.931300 11.300900
						CHANNELS 3 Xrotation Yrotation Zrotation
						End Site
						{
							OFFSET 0.000000 11.669021 0.000000
						}
					}
				}
			}
		}
	}
}
MOTION
Frames: 6
Frame Time: 0.033333
0.025408 12.171448 4.129181 -50.004266 -1.976696 -1.656685 11.385821 1.119866 0.221728 22.789136 0.140619 -1.115304 22.789134 0.140618 -1.115304 4.014967 -1.887046 2.870521 33.349635 1.641487 2.173309 -0.000001 -0.000000 0.000000 -1.195500 4.294090 -5.461325 0.983179 -31.849275 -57.876462 0.759256 -80.043404 0.829062 74.920652 -8.730379 20.249296 -3.328334 7.085359 1.023561 4.048582 10.195694 2.376999 -0.000003 0.000008 -0.000001 -0.000000 -0.000002 0.000000 -5.297307 -2.051113 -39.767301 0.136574 0.898901 -25.992616 -0.000004 0.000002 0.000002 -0.000002 -0.000000 0.000004 -1.925617 3.981106 -28.849893 -0.562025 -2.241640 -23.090921 -0.000001 0.000001 -0.000001 0.000004 -0.000000 0.000001 0.295159 8.999303 -20.319705 -0.772805 -3.677454 -27.573554 -0.000002 -0.000000 -0.000004 -0.000000 -0.000000 -0.000000 0.694828 12.270863 -19.078646 -0.484644 -5.044553 -11.247481 -0.000001 0.000001 0.000001 -0.000001 0.000001 -0.000001 -7.213397 -0.065341 18.844074 19.927033 18.682386 52.412027 1.125528 92.222792 -1.094063 72.703197 -3.994459 -27.515673 -2.027903 -6.975266 -2.360556 2.089640 -6.080025 -2.749583 0.000002 0.000001 0.000000 0.000000 0.000000 0.000002 0.259240 -3.723119 18.735339 0.131170 -1.149315 17.690149 0.000002 -0.000003 0.000000 0.000001 0.000001 -0.000000 0.509202 -8.493231 15.571964 -0.221742 0.910538 8.225128 -0.000000 -0.000006 0.000000 -0.000000 0.000000 -0.000000 2.045854 -9.444150 11.365187 -0.546290 3.375591 18.806125 -0.000000 -0.000000 0.000000 -0.000000 0.000000 -0.000000 -2.699834 -19.111342 12.593001 -1.078236 7.469316 21.982516 -0.000001 -0.000001 0.000003 -0.000000 -0.000000 0.000003 -64.140012 51.079932 11.432611 15.423754 1.635872 0.002565 31.469352 7.506787 17.952259 0.002986 -0.026184 0.062616 -0.000001 -0.000002 0.000001 -53.352599 -17.948277 -0.320074 11.088395 7.283312 3.848748 13.356966 -4.774743 -3.137416 -0.012207 -0.109722 0.262095 -0.000000 0.000002 -0.000000 
0.022803 12.173973 4.129593 -50.004505 -1.976408 -1.656289 11.384173 1.119874 0.222701 22.785883 0.141148 -1.113389 22.785885 0.141148 -1.113388 4.000128 -1.884458 2.852277 33.289341 1.623261 2.200957 0.000003 0.000000 -0.000000 -1.200827 4.264860 -5.482849 1.013955 -31.822039 -57.840945 0.760519 -80.055985 0.830354 74.914048 -8.726000 20.259787 -3.328335 7.085358 1.023563 4.048583 10.195693 2.377001 -0.000002 0.000006 0.000001 0.000000 -0.000001 0.000001 -5.297312 -2.051124 -39.767281 0.136572 0.898904 -25.992616 -0.000001 0.000002 0.000003 -0.000001 -0.000000 0.000001 -1.925613 3.981101 -28.849886 -0.562026 -2.241640 -23.090921 0.000002 -0.000000 0.000001 -0.000003 -0.000000 -0.000002 0.295164 8.999304 -20.319707 -0.772807 -3.677452 -27.573554 -0.000004 -0.000002 -0.000001 -0.000000 -0.000002 -0.000003 0.694827 12.270866 -19.078639 -0.484644 -5.044551 -11.247477 -0.000001 -0.000002 0.000003 -0.000002 -0.000002 0.000001 -7.202850 -0.081777 18.755566 19.881347 18.748811 52.507284 1.154157 92.151840 -1.122362 72.712999 -3.994073 -27.567077 -2.027902 -6.975266 -2.360558 2.089640 -6.080025 -2.749584 0.000002 0.000002 -0.000004 0.000000 0.000000 -0.000000 0.259239 -3.723107 18.735327 0.131170 -1.149313 17.690151 0.000003 -0.000002 0.000001 0.000001 0.000000 -0.000001 0.509198 -8.493216 15.571952 -0.221741 0.910539 8.225126 -0.000000 -0.000004 0.000001 -0.000000 0.000001 0.000000 2.045856 -9.444151 11.365180 -0.546290 3.375591 18.806120 -0.000000 -0.000001 -0.000000 -0.000000 -0.000001 -0.000000 -2.699835 -19.111315 12.592996 -1.078236 7.469316 21.982515 -0.000000 -0.000001 -0.000000 -0.000000 -0.000001 -0.000001 -64.140633 51.076984 11.435367 15.426047 1.635879 0.002446 31.469110 7.507163 17.948528 0.002988 -0.026188 0.062618 -0.000003 0.000001 -0.000000 -53.351215 -17.945349 -0.318454 11.090880 7.283120 3.848656 13.353206 -4.777660 -3.138312 -0.012284 -0.110382 0.263685 0.000001 0.000002 -0.000000 
0.020183 12.174019 4.128967 -50.004457 -1.976489 -1.656335 11.383881 1.119395 0.224143 22.785231 0.140224 -1.110619 22.785245 0.140225 -1.110619 3.996508 -1.879300 2.845983 33.260484 1.633682 2.235766 0.000001 -0.000000 0.000001 -1.201925 4.231145 -5.458398 1.002693 -31.786645 -57.873730 0.759195 -80.049223 0.829134 74.917251 -8.726194 20.267943 -3.328334 7.085359 1.023560 4.048582 10.195693 2.376998 -0.000002 0.000009 0.000000 -0.000000 -0.000001 -0.000000 -5.297306 -2.051121 -39.767301 0.136570 0.898900 -25.992616 -0.000001 0.000002 0.000001 -0.000001 -0.000000 0.000003 -1.925610 3.981106 -28.849889 -0.562025 -2.241640 -23.090920 0.000002 0.000001 -0.000003 0.000001 0.000001 0.000002 0.295161 8.999305 -20.319700 -0.772807 -3.677450 -27.573549 -0.000002 0.000000 0.000001 0.000001 0.000001 -0.000000 0.694834 12.270871 -19.078646 -0.484644 -5.044554 -11.247477 -0.000000 0.000000 0.000001 -0.000000 0.000001 0.000001 -7.198329 -0.085334 18.707680 19.849233 18.779510 52.563100 1.172695 92.118208 -1.140901 72.723579 -3.988902 -27.578234 -2.027903 -6.975267 -2.360557 2.089640 -6.080027 -2.749584 0.000000 0.000001 -0.000000 -0.000000 0.000001 -0.000002 0.259235 -3.723098 18.735328 0.131170 -1.149313 17.690152 0.000003 -0.000002 0.000001 0.000000 -0.000000 0.000001 0.509197 -8.493206 15.571957 -0.221742 0.910538 8.225128 -0.000000 -0.000006 0.000000 -0.000000 -0.000001 -0.000000 2.045850 -9.444137 11.365182 -0.546291 3.375592 18.806123 -0.000000 -0.000000 -0.000001 -0.000000 0.000001 0.000000 -2.699841 -19.111318 12.592994 -1.078237 7.469315 21.982516 0.000000 -0.000001 -0.000000 0.000000 -0.000001 -0.000001 -64.142088 51.075448 11.437650 15.425024 1.635680 0.002411 31.471521 7.507439 17.946780 0.002989 -0.026187 0.062618 0.000002 -0.000000 0.000001 -53.349423 -17.947242 -0.316150 11.088787 7.283212 3.848714 13.353635 -4.776731 -3.140559 -0.012365 -0.111153 0.265515 0.000001 0.000000 -0.000000 
0.018253 12.173462 4.128548 -50.004406 -1.976601 -1.656358 11.384231 1.120401 0.226274 22.786061 0.142395 -1.106706 22.786044 0.142395 -1.106705 4.000183 -1.877940 2.858288 33.222488 1.651934 2.256295 0.000001 0.000000 0.000000 -1.198428 4.195249 -5.386962 0.945135 -31.759085 -57.976579 0.755283 -80.010660 0.825451 74.933063 -8.734852 20.299025 -3.328334 7.085362 1.023561 4.048583 10.195691 2.377000 -0.000003 0.000008 -0.000001 -0.000001 0.000001 0.000000 -5.297297 -2.051102 -39.767301 0.136574 0.898902 -25.992616 -0.000004 0.000001 0.000000 -0.000000 0.000001 0.000002 -1.925610 3.981112 -28.849882 -0.562025 -2.241643 -23.090920 -0.000001 0.000003 0.000001 0.000001 -0.000002 -0.000002 0.295161 8.999310 -20.319703 -0.772806 -3.677453 -27.573551 -0.000002 -0.000002 -0.000003 -0.000002 -0.000001 -0.000004 0.694832 12.270870 -19.078648 -0.484643 -5.044553 -11.247476 -0.000000 0.000001 0.000003 -0.000000 0.000001 0.000001 -7.200759 -0.076486 18.714322 19.844367 18.766689 52.556082 1.168823 92.126753 -1.137040 72.726782 -3.996263 -27.563455 -2.027902 -6.975265 -2.360559 2.089640 -6.080026 -2.749583 0.000001 0.000001 -0.000000 0.000000 0.000001 -0.000002 0.259236 -3.723099 18.735335 0.131170 -1.149312 17.690149 0.000002 -0.000002 0.000000 -0.000001 -0.000000 -0.000002 0.509206 -8.493223 15.571964 -0.221742 0.910537 8.225126 -0.000001 -0.000005 0.000000 -0.000000 -0.000000 -0.000000 2.045858 -9.444157 11.365185 -0.546290 3.375591 18.806122 -0.000000 0.000001 -0.000000 -0.000000 0.000000 -0.000000 -2.699836 -19.111325 12.592998 -1.078237 7.469316 21.982515 -0.000000 -0.000001 0.000002 0.000001 0.000001 -0.000000 -64.143263 51.074618 11.439104 15.423703 1.635574 0.002413 31.473822 7.507682 17.945900 0.002989 -0.026185 0.062619 0.000003 0.000000 -0.000000 -53.348746 -17.948176 -0.314395 11.087548 7.283328 3.848812 13.354356 -4.776614 -3.142240 -0.012339 -0.111033 0.265255 -0.000001 0.000001 0.000000 
0.016374 12.174446 4.128319 -50.004399 -1.976654 -1.656350 11.385981 1.120314 0.228179 22.789549 0.142460 -1.102945 22.789558 0.142460 -1.102945 4.001702 -1.878818 2.873642 33.151474 1.665995 2.245724 -0.000001 -0.000000 -0.000000 -1.193276 4.168162 -5.314032 0.878974 -31.739790 -58.080404 0.750875 -79.964679 0.821288 74.948062 -8.742897 20.341150 -3.328334 7.085361 1.023561 4.048583 10.195691 2.377001 -0.000002 0.000008 -0.000001 0.000000 -0.000002 -0.000000 -5.297298 -2.051113 -39.767301 0.136573 0.898902 -25.992613 -0.000002 0.000001 0.000001 -0.000002 0.000001 0.000001 -1.925614 3.981111 -28.849882 -0.562025 -2.241645 -23.090923 -0.000002 0.000002 0.000003 -0.000000 0.000000 0.000002 0.295165 8.999317 -20.319712 -0.772807 -3.677455 -27.573551 -0.000002 0.000001 -0.000001 -0.000003 -0.000001 -0.000002 0.694833 12.270875 -19.078648 -0.484645 -5.044553 -11.247479 -0.000000 0.000000 0.000000 0.000000 0.000001 0.000001 -7.205596 -0.063363 18.741028 19.841472 18.745326 52.529141 1.163237 92.143172 -1.131507 72.730224 -4.002299 -27.542787 -2.027902 -6.975266 -2.360558 2.089639 -6.080025 -2.749584 0.000002 0.000002 -0.000002 0.000001 -0.000001 0.000002 0.259234 -3.723101 18.735334 0.131170 -1.149314 17.690151 0.000002 -0.000002 0.000001 0.000000 0.000000 0.000001 0.509200 -8.493217 15.571959 -0.221742 0.910539 8.225126 -0.000000 -0.000005 -0.000000 -0.000000 0.000000 0.000000 2.045853 -9.444157 11.365181 -0.546291 3.375592 18.806120 -0.000000 -0.000000 -0.000001 0.000000 -0.000000 0.000000 -2.699844 -19.111315 12.592996 -1.078237 7.469316 21.982516 0.000000 0.000000 -0.000001 -0.000000 0.000001 0.000000 -64.144274 51.073272 11.441284 15.423950 1.635504 0.002353 31.474669 7.507602 17.944044 0.002985 -0.026184 0.062616 -0.000002 -0.000001 0.000001 -53.347233 -17.947543 -0.312652 11.086969 7.283411 3.848841 13.353437 -4.777772 -3.143226 -0.012256 -0.110064 0.262936 -0.000001 0.000001 -0.000000 
0.013872 12.177490 4.128113 -50.004430 -1.976715 -1.656364 11.389448 1.116466 0.229824 22.796257 0.134990 -1.098961 22.796272 0.134990 -1.098961 4.001577 -1.877189 2.877699 33.083879 1.681239 2.203866 -0.000001 -0.000000 -0.000000 -1.189259 4.155148 -5.274666 0.838394 -31.723391 -58.130900 0.748250 -79.933806 0.818836 74.947980 -8.740874 20.383829 -3.328334 7.085354 1.023560 4.048581 10.195689 2.377000 -0.000002 0.000005 0.000001 0.000000 -0.000000 0.000001 -5.297304 -2.051113 -39.767274 0.136573 0.898904 -25.992609 -0.000001 0.000002 0.000000 0.000000 -0.000002 0.000003 -1.925612 3.981106 -28.849879 -0.562024 -2.241644 -23.090921 0.000000 0.000003 -0.000002 0.000000 0.000002 0.000003 0.295164 8.999309 -20.319703 -0.772807 -3.677455 -27.573551 -0.000001 -0.000000 -0.000002 0.000001 -0.000002 -0.000000 0.694825 12.270851 -19.078636 -0.484643 -5.044554 -11.247479 -0.000001 -0.000000 0.000001 -0.000000 0.000000 0.000001 -7.210137 -0.050371 18.764963 19.822466 18.738552 52.511700 1.166997 92.147469 -1.135329 72.743878 -3.995608 -27.521943 -2.027903 -6.975268 -2.360559 2.089640 -6.080027 -2.749586 0.000001 0.000002 -0.000001 0.000000 0.000000 0.000000 0.259241 -3.723126 18.735332 0.131170 -1.149314 17.690147 0.000002 -0.000001 0.000000 -0.000000 0.000001 0.000000 0.509208 -8.493248 15.571962 -0.221742 0.910538 8.225126 -0.000001 -0.000007 0.000001 -0.000000 -0.000000 -0.000000 2.045853 -9.444150 11.365180 -0.546291 3.375591 18.806127 -0.000000 0.000000 0.000000 -0.000000 0.000001 -0.000001 -2.699832 -19.111341 12.592998 -1.078237 7.469316 21.982516 0.000000 -0.000001 0.000001 0.000001 -0.000000 0.000000 -64.144724 51.070899 11.444432 15.425253 1.635552 0.002292 31.474598 7.507160 17.940525 0.002988 -0.026184 0.062615 0.000003 -0.000000 -0.000000 -53.344273 -17.946406 -0.310360 11.087137 7.283580 3.848936 13.350584 -4.779258 -3.144506 -0.012188 -0.109379 0.261259 -0.000000 -0.000001 0.000000 
